<svg width="22" height="22" viewBox="0 0 22 22" fill="none" xmlns="http://www.w3.org/2000/svg">
<path d="M20.2611 4.599L15.7665 0.184631C15.646 0.0662994 15.4839 0 15.3148 0H3.95178C2.62579 0 1.54688 1.07875 1.54688 2.40491V19.5951C1.54688 20.9211 2.62563 22 3.95178 22H18.0491C19.375 22 20.454 20.9212 20.454 19.5951V5.0589C20.454 4.88585 20.3845 4.72018 20.2611 4.599ZM15.9594 2.181L18.2334 4.41437H16.1643C16.0513 4.41437 15.9594 4.32239 15.9594 4.20943V2.181ZM18.0491 20.7109H3.95178C3.33662 20.7109 2.83594 20.2104 2.83594 19.5951V2.40491C2.83594 1.78958 3.33646 1.28906 3.95178 1.28906H14.6705V4.20943C14.6705 5.03322 15.3407 5.70343 16.1645 5.70343H19.1649V19.5951C19.1649 20.2104 18.6644 20.7109 18.0491 20.7109Z" fill="#979797"/>
<path d="M15.475 10.2266H6.3891C6.0331 10.2266 5.74457 10.5151 5.74457 10.8711C5.74457 11.2271 6.0331 11.5156 6.3891 11.5156H15.475C15.831 11.5156 16.1195 11.2271 16.1195 10.8711C16.1195 10.5151 15.831 10.2266 15.475 10.2266Z" fill="#979797"/>
<path d="M6.3891 14.0938H13.7975C14.1535 14.0938 14.442 13.8052 14.442 13.4492C14.442 13.0932 14.1535 12.8047 13.7975 12.8047H6.3891C6.0331 12.8047 5.74457 13.0932 5.74457 13.4492C5.74457 13.8052 6.0331 14.0938 6.3891 14.0938Z" fill="#979797"/>
<path d="M14.6913 15.3828H6.3891C6.0331 15.3828 5.74457 15.6713 5.74457 16.0273C5.74457 16.3833 6.0331 16.6719 6.3891 16.6719H14.6913C15.0471 16.6719 15.3358 16.3833 15.3358 16.0273C15.3358 15.6713 15.0471 15.3828 14.6913 15.3828Z" fill="#979797"/>
</svg>
