<svg width="23" height="23" viewBox="0 0 23 23" fill="none" xmlns="http://www.w3.org/2000/svg">
<g clip-path="url(#clip0)">
<path d="M0 7.42527H5.08933V2.33594H0V7.42527ZM1.34783 3.68377H3.74168V6.07761H1.34783V3.68377Z" fill="#D2D2D2"/>
<path d="M6.70667 2.33594V7.42527H23V2.33594H6.70667ZM21.6521 6.07761H8.0545V3.68377H21.6521V6.07761Z" fill="#D2D2D2"/>
<path d="M0 14.0292H5.08933V8.93982H0V14.0292ZM1.34783 10.2875H3.74168V12.6813H1.34783V10.2875Z" fill="#D2D2D2"/>
<path d="M6.70667 14.0292H23V8.93982H6.70667V14.0292ZM8.0545 10.2875H21.6521V12.6813H8.0545V10.2875Z" fill="#D2D2D2"/>
<path d="M0 20.633H5.08933V15.5435H0V20.633ZM1.34783 16.8913H3.74168V19.2852H1.34783V16.8913Z" fill="#D2D2D2"/>
<path d="M6.70667 20.633H23V15.5435H6.70667V20.633ZM8.0545 16.8913H21.6521V19.2852H8.0545V16.8913Z" fill="#D2D2D2"/>
</g>
<defs>
<clipPath id="clip0">
<rect width="23" height="23" fill="white"/>
</clipPath>
</defs>
</svg>
